<?xml version="1.0" encoding="utf-8"?>
<!-- Generator: Adobe Illustrator 18.0.0, SVG Export Plug-In . SVG Version: 6.00 Build 0)  -->
<!DOCTYPE svg PUBLIC "-//W3C//DTD SVG 1.1//EN" "http://www.w3.org/Graphics/SVG/1.1/DTD/svg11.dtd">
<svg version="1.1" id="Calque_1" xmlns="http://www.w3.org/2000/svg" xmlns:xlink="http://www.w3.org/1999/xlink" x="0px" y="0px"
	 viewBox="0 292.9 595.3 268" enable-background="new 0 292.9 595.3 268" xml:space="preserve">
<path fill="#525151" d="M199.3,407.7c-12,8.6-24.8,15.4-38.5,20.5c-18.8,7.7-37.6,14.5-58.2,13.7c-50.5,2.6-71-21.4-78.7-34.2
	l-0.9-0.9c-0.9-1.7-1.7-3.4-2.6-5.1c0-0.9-0.9-0.9-0.9-0.9l0,0c-3.4-10.3-1.7-24.8,2.6-33.4c6.8-9.4,15.4-20.5,24.8-24.8
	c5.1-1.7,13.7-6,29.9-4.3l0,0c0,0,21.4,0,25.7,21.4v4.3c-4.3-4.3-10.3-6.8-16.3-6.8c-13.7,0-24.8,11.1-24.8,24.8
	c0,3.4,0.9,6.8,2.6,10.3c1.7,5.1,6,9.4,12,12c0,0,0.9,0,0.9,0.9c6.8,2.6,14.5,3.4,23.1,1.7c17.1-3.4,27.4-12.8,29.1-28.2
	c0-1.7,0-3.4,0-5.1c0-0.9,0.9-18.8-10.3-28.2c0-2.6-16.3-20.5-56.4-12.8c-36.8,6-46.2,35.1-49.6,48.8c-0.9,5.1-6,29.1,12.8,52.2
	c18.8,23.9,44.5,29.1,56.4,31.6c23.1,3.4,83,15.4,152.2-34.2c100.1-71.8,213.8-105.2,307-105.2C487.5,311,373.8,291.4,199.3,407.7z"
	/>
<path fill="#525151" d="M398.6,432.5c12-8.6,24.8-15.4,38.5-20.5c18.8-7.7,37.6-14.5,58.2-13.7c50.5-2.6,71,21.4,78.7,34.2l0.9,0.9
	c0.9,1.7,1.7,3.4,2.6,5.1c0,0.9,0.9,0.9,0.9,0.9l0,0c3.4,10.3,1.7,24.8-2.6,33.4c-5.1,9.4-13.7,20.5-23.1,24.8
	c-5.1,2.6-13.7,6-29.9,4.3l0,0c0,0-21.4,0-25.7-21.4v-5.1c4.3,4.3,10.3,6.8,16.3,6.8c13.7,0,24.8-11.1,24.8-24.8
	c0-3.4-0.9-6.8-2.6-10.3c-1.7-5.1-6-9.4-12-12c0,0-0.9,0-0.9-0.9c-6.8-2.6-14.5-3.4-23.1-1.7c-17.1,3.4-27.4,12.8-29.1,28.2
	c0,1.7,0,3.4,0,5.1c0,0.9-0.9,18.8,10.3,28.2c1.7,1.7,18,19.7,58.2,12.8c36.8-6.8,46.2-35.9,48.8-48.8c0.9-5.1,6-29.1-12.8-52.2
	c-18.8-23.9-44.5-29.1-56.4-31.6c-23.1-3.4-83-15.4-152.2,34.2C266,480.4,152.2,513.7,59,513.7C110.3,528.3,224.1,548.8,398.6,432.5
	z"/>
</svg>
